<?xml version="1.0" encoding="UTF-8"?>
<svg preserveAspectRatio="xMidYMid slice" xmlns="http://www.w3.org/2000/svg" width="30px" height="5px" viewBox="0 0 134.24 23.847">
  <g id="logo" transform="translate(-152.107 -41.896)">
    <path id="Builders" d="M13.92-11.1A5.68,5.68,0,0,1,16.9-9.09,5.308,5.308,0,0,1,17.91-5.88a5.953,5.953,0,0,1-.8,3.1A5.2,5.2,0,0,1,14.79-.72,8.612,8.612,0,0,1,11.1,0H1.95V-21.36h8.76a7.632,7.632,0,0,1,3.525.735,4.9,4.9,0,0,1,2.115,1.98,5.567,5.567,0,0,1,.69,2.745,5.116,5.116,0,0,1-.81,2.88A5.37,5.37,0,0,1,13.92-11.1ZM3.72-19.74v7.98h6.87a4.976,4.976,0,0,0,3.54-1.11,3.9,3.9,0,0,0,1.17-2.97,3.923,3.923,0,0,0-.51-2,3.5,3.5,0,0,0-1.56-1.395,6.031,6.031,0,0,0-2.64-.51ZM11.04-1.62a5.617,5.617,0,0,0,3.75-1.125A3.9,3.9,0,0,0,16.11-5.88a3.914,3.914,0,0,0-1.32-3.2,5.774,5.774,0,0,0-3.78-1.095H3.72v8.55ZM30.87-15.48h1.71V0H30.96V-2.88A5.93,5.93,0,0,1,28.875-.51,5.505,5.505,0,0,1,25.8.36a5.411,5.411,0,0,1-4.05-1.47,5.71,5.71,0,0,1-1.44-4.17v-10.2h1.71V-5.43a4.339,4.339,0,0,0,1.065,3.195A4.12,4.12,0,0,0,26.13-1.17a4.594,4.594,0,0,0,2.31-.615A4.564,4.564,0,0,0,30.195-3.66a6.616,6.616,0,0,0,.675-3.15Zm7.05-2.16H36.09v-2.82h1.83ZM37.89,0H36.18V-15.48h1.71ZM43.2,0H41.49V-21.36H43.2ZM58.68-21.36h1.71V0H58.77V-3.03A6.228,6.228,0,0,1,56.49-.525,6.287,6.287,0,0,1,53.13.36,6.814,6.814,0,0,1,49.41-.645a6.517,6.517,0,0,1-2.445-2.85A9.993,9.993,0,0,1,46.11-7.74a9.993,9.993,0,0,1,.855-4.245,6.517,6.517,0,0,1,2.445-2.85,6.814,6.814,0,0,1,3.72-1.005,6.347,6.347,0,0,1,3.285.84,6.084,6.084,0,0,1,2.265,2.37ZM53.31-1.17a5.116,5.116,0,0,0,2.88-.81,5.19,5.19,0,0,0,1.89-2.3,8.467,8.467,0,0,0,.66-3.465,8.467,8.467,0,0,0-.66-3.465,5.19,5.19,0,0,0-1.89-2.3,5.116,5.116,0,0,0-2.88-.81,5.048,5.048,0,0,0-2.88.825,5.276,5.276,0,0,0-1.89,2.325,8.655,8.655,0,0,0-.66,3.51,8.255,8.255,0,0,0,.66,3.435,5.119,5.119,0,0,0,1.89,2.25A5.187,5.187,0,0,0,53.31-1.17ZM70.32.36A6.814,6.814,0,0,1,66.6-.645,6.532,6.532,0,0,1,64.155-3.48,9.967,9.967,0,0,1,63.3-7.74a10.043,10.043,0,0,1,.84-4.23,6.568,6.568,0,0,1,2.415-2.85,6.664,6.664,0,0,1,3.7-1.02,6.561,6.561,0,0,1,3.765,1.065,6.567,6.567,0,0,1,2.37,2.9,10.214,10.214,0,0,1,.8,4.11v.6H65.04a7.023,7.023,0,0,0,1.53,4.41A4.823,4.823,0,0,0,70.38-1.2a4.678,4.678,0,0,0,3.06-1A4.909,4.909,0,0,0,75.09-4.95h1.77a7.167,7.167,0,0,1-1.2,2.76A6.028,6.028,0,0,1,73.44-.315,6.888,6.888,0,0,1,70.32.36ZM75.36-8.7a7.445,7.445,0,0,0-.705-2.88,4.827,4.827,0,0,0-1.725-1.98,4.8,4.8,0,0,0-2.67-.72,4.652,4.652,0,0,0-3.6,1.47A6.672,6.672,0,0,0,65.1-8.7Zm11.67-6.99q.54,0,.87.03v1.62h-.72a6.048,6.048,0,0,0-2.925.66,4.413,4.413,0,0,0-1.845,1.86,6.054,6.054,0,0,0-.63,2.85V0H80.07V-15.48h1.62v3.24a6.252,6.252,0,0,1,2.025-2.475A5.47,5.47,0,0,1,87.03-15.69ZM94.86.36A7.15,7.15,0,0,1,90.225-.975,5.075,5.075,0,0,1,88.44-4.8h1.74a3.783,3.783,0,0,0,1.275,2.775,5.323,5.323,0,0,0,3.405.915,5.819,5.819,0,0,0,3.21-.735A2.468,2.468,0,0,0,99.18-4.05a2.382,2.382,0,0,0-.375-1.365,2.7,2.7,0,0,0-1.2-.915,10.873,10.873,0,0,0-2.235-.63l-1.59-.27A7.438,7.438,0,0,1,90.1-8.745,3.661,3.661,0,0,1,88.92-11.61a3.874,3.874,0,0,1,.66-2.25,4.133,4.133,0,0,1,1.92-1.47,7.89,7.89,0,0,1,2.97-.51,6.853,6.853,0,0,1,4.515,1.26,4.737,4.737,0,0,1,1.6,3.54H98.85a3.317,3.317,0,0,0-1.155-2.52,5.22,5.22,0,0,0-3.225-.81,4.81,4.81,0,0,0-2.835.72,2.332,2.332,0,0,0-1,2.01,2.176,2.176,0,0,0,.885,1.875A7.07,7.07,0,0,0,94.29-8.76l1.56.27A8.069,8.069,0,0,1,99.7-6.975,3.569,3.569,0,0,1,100.89-4.14,3.833,3.833,0,0,1,99.255-.78,7.555,7.555,0,0,1,94.86.36Z" transform="translate(185.457 64)" fill="#555"></path>
    <path id="JH" d="M26.993,9.383V1.225h4.442V0H0V14.507H3.6V15a9.313,9.313,0,0,0,.544,3.491A2.075,2.075,0,0,0,6.224,19.5a2.062,2.062,0,0,0,2.09-1.1,5.675,5.675,0,0,0,.3-2.206V1.225h4.471V16.118a8.487,8.487,0,0,1-.943,4.326q-1.6,2.7-5.763,2.7T.8,20.96A7.573,7.573,0,0,1,0,19.294v4.552H31.435V22.622H26.993V13.07H18.631v9.552H14.2V1.225h4.427V9.383Z" transform="translate(152.107 41.896)" fill="#ed3127"></path>
  </g>
</svg>
