<svg xmlns="http://www.w3.org/2000/svg" width="19.572" height="20.108" viewBox="0 0 19.572 20.108">
  <g id="instagram" transform="translate(0 0)">
    <path id="Path_409" data-name="Path 409" d="M1478.4,1601.762h-8.184a5.71,5.71,0,0,1-5.694-5.694v-8.721a5.71,5.71,0,0,1,5.694-5.694h8.184a5.71,5.71,0,0,1,5.694,5.694v8.721A5.71,5.71,0,0,1,1478.4,1601.762Zm0-1.5a4.206,4.206,0,0,0,4.189-4.189v-8.721a4.206,4.206,0,0,0-4.189-4.189h-8.184a4.206,4.206,0,0,0-4.189,4.189v8.721a4.206,4.206,0,0,0,4.189,4.189Z" transform="translate(-1464.523 -1581.654)" fill="#ed3127"/>
    <path id="Path_410" data-name="Path 410" d="M1491.406,1604.592a4.539,4.539,0,1,1-4.539-4.487A4.513,4.513,0,0,1,1491.406,1604.592Zm-4.561-2.934a2.938,2.938,0,1,0,2.972,2.938A2.955,2.955,0,0,0,1486.846,1601.657Z" transform="translate(-1477.045 -1594.63)" fill="#ed3127"/>
    <ellipse id="Ellipse_32" data-name="Ellipse 32" cx="1.523" cy="1.523" rx="1.523" ry="1.523" transform="translate(13.609 3.136)" fill="#ed3127"/>
  </g>
</svg>