<svg class="nav-svg" xmlns="http://www.w3.org/2000/svg" xmlns:xlink="http://www.w3.org/1999/xlink" height="179.998" viewBox="0 0 178.995 179.998">
  <defs>
    <clipPath id="clip-path">
      <rect width="178.994" height="179.998" fill="#ed3128"/>
    </clipPath>
  </defs>
  <rect id="logo-bg" width="178.995" height="136.277" transform="translate(0 0)" fill="#fff"/>
  <g>
    <g clip-path="url(#clip-path)">
      <path id="builders" data-name="Path 557" d="M13.929,157.885a11.1,11.1,0,0,0,4.875-.871,5.016,5.016,0,0,0,2.736-4.925,4.746,4.746,0,0,0-2.91-4.825,13.087,13.087,0,0,0-4.875-.7H4.925v11.317ZM15.6,174.749q4.552,0,6.492-2.636a6.638,6.638,0,0,0,1.219-4.029,5.361,5.361,0,0,0-3.557-5.422,13.463,13.463,0,0,0-5-.771H4.926V174.75ZM.072,142.439h15.7q6.417,0,9.128,3.83a8.851,8.851,0,0,1,1.592,5.223,8.223,8.223,0,0,1-1.965,5.671,9.6,9.6,0,0,1-2.935,2.139,12.422,12.422,0,0,1,4.2,2.413,8.755,8.755,0,0,1,2.462,6.591A10.181,10.181,0,0,1,26.04,174.7q-3.308,4.278-10.521,4.278H.072Zm37.98,9.9v17.684a7.45,7.45,0,0,0,.647,3.333q1.194,2.388,4.452,2.388a6.293,6.293,0,0,0,6.367-4.179,16.58,16.58,0,0,0,.92-6.143V152.338h4.477v26.638H50.691l.05-3.93a9.024,9.024,0,0,1-2.169,2.563,9.521,9.521,0,0,1-6.218,2.089q-5.7,0-7.76-3.8a11.332,11.332,0,0,1-1.119-5.447V152.338Zm23.853.124h4.552v26.514H61.908Zm0-10.024h4.552v5.075H61.908Zm11.441,0h4.477v36.538H73.35Zm14.032,23.529a13.2,13.2,0,0,0,1.816,7.163,6.363,6.363,0,0,0,5.82,2.883,6.131,6.131,0,0,0,5.111-2.674q2-2.674,2-7.673,0-5.049-2.064-7.474a6.44,6.44,0,0,0-5.1-2.425,6.734,6.734,0,0,0-5.484,2.587q-2.1,2.589-2.1,7.613m6.74-14.1a9.475,9.475,0,0,1,5.124,1.293,12.045,12.045,0,0,1,2.711,2.612V142.314h4.3v36.662h-4.029V175.27a9.688,9.688,0,0,1-3.706,3.557,10.6,10.6,0,0,1-4.9,1.094,9.921,9.921,0,0,1-7.71-3.743q-3.256-3.742-3.256-9.964a17.2,17.2,0,0,1,2.972-10.086,9.731,9.731,0,0,1,8.494-4.262Zm29.847-.124a12.158,12.158,0,0,1,5.5,1.331,10.139,10.139,0,0,1,4.054,3.445,11.9,11.9,0,0,1,1.791,4.7,30.687,30.687,0,0,1,.4,5.87H116.18a11.388,11.388,0,0,0,1.915,6.5,6.415,6.415,0,0,0,5.547,2.45,7.169,7.169,0,0,0,5.6-2.313,7.806,7.806,0,0,0,1.691-3.109h4.4a9.269,9.269,0,0,1-1.157,3.271,11.609,11.609,0,0,1-2.2,2.947,10.439,10.439,0,0,1-5.049,2.686,15.3,15.3,0,0,1-3.656.4,11.218,11.218,0,0,1-8.432-3.619q-3.458-3.619-3.457-10.136a15.311,15.311,0,0,1,3.482-10.422,11.49,11.49,0,0,1,9.1-4Zm7.138,11.79a11.589,11.589,0,0,0-1.268-4.651q-1.841-3.232-6.143-3.233a6.808,6.808,0,0,0-5.173,2.226,8.41,8.41,0,0,0-2.214,5.658Zm10.223-11.193h4.253v4.6a10.169,10.169,0,0,1,2.562-3.271,6.64,6.64,0,0,1,4.7-1.928c.083,0,.224.008.423.025s.539.05,1.02.1v4.726a6.742,6.742,0,0,0-.734-.1q-.336-.025-.734-.025a6.388,6.388,0,0,0-5.2,2.176,7.6,7.6,0,0,0-1.816,5.012v15.321h-4.477Zm19.5,18.281a6.51,6.51,0,0,0,1.119,3.432q1.69,2.164,5.87,2.164a8.663,8.663,0,0,0,4.378-1.082,3.594,3.594,0,0,0,1.89-3.345,2.86,2.86,0,0,0-1.517-2.612,18,18,0,0,0-3.83-1.268l-3.557-.9a17.347,17.347,0,0,1-5.024-1.89,5.652,5.652,0,0,1-2.885-5.024,7.675,7.675,0,0,1,2.724-6.119,10.863,10.863,0,0,1,7.325-2.338q6.02,0,8.68,3.532A7.663,7.663,0,0,1,177.616,160h-4.228a5.175,5.175,0,0,0-1.07-2.761q-1.542-1.765-5.348-1.766a6.4,6.4,0,0,0-3.843.97A3.04,3.04,0,0,0,161.821,159a3.153,3.153,0,0,0,1.716,2.786,10.318,10.318,0,0,0,2.935,1.1l2.96.721a22.888,22.888,0,0,1,6.467,2.263,5.991,5.991,0,0,1,2.612,5.4,8.228,8.228,0,0,1-2.7,6.143q-2.7,2.588-8.22,2.587-5.944,0-8.419-2.7a10.2,10.2,0,0,1-2.649-6.678Z" fill="#5d5d5f"/>
      <path id="jh" data-name="Path 558" d="M178.994,0V6.68l-23.807-.059c-1.13,0-1.1-.086-1.1,1.086q.013,13.887.024,27.774,0,8.428-.035,16.857c0,1.231-.007,1.229-1.26,1.228q-15.589-.011-31.181-.017c-4.658,0-9.316.026-13.974.04-.2,0-.408-.013-.611,0-.427.032-.549-.178-.545-.578.013-1.514,0-3.028,0-4.541V7.77c0-1.221.058-1.15-1.13-1.15H81.793c-1.127,0-1.05-.05-1.05,1.036V128.712c0,1.306-.14,1.232,1.223,1.226,7.861-.03,15.721-.091,23.581.023h.262c.625-.026.663-.064.7-.723.006-.116,0-.233,0-.349q0-26.421-.006-52.841v-.611a.41.41,0,0,1,.341-.469.435.435,0,0,1,.144,0c.2.007.407,0,.611,0L151.357,75a10.01,10.01,0,0,1,1.307.053,1.4,1.4,0,0,1,1.378,1.333,8.878,8.878,0,0,1,.08,1.392q-.012,9.127-.034,18.254-.014,16.42-.014,32.84c0,1.066,0,1.066,1.034,1.064l23.886-.052v6.394H0v-25.6c.3.06.353.276.426.434.813,1.74,1.631,3.477,2.425,5.226a25.48,25.48,0,0,0,7.742,9.961,26.285,26.285,0,0,0,8.46,4.247,58.266,58.266,0,0,0,17.3,2.519,53.191,53.191,0,0,0,16.5-2.544c9.174-3.051,15.324-9.223,18.61-18.28a49.728,49.728,0,0,0,2.786-14.786c.2-4.277.084-8.558.087-12.837q.027-38.167.019-76.336V8.021c0-1.541.09-1.386-1.345-1.386q-11.66,0-23.32.006h-.262c-.951.009-.958.009-.958.976q0,16.071.006,32.141.007,27.119.017,54.239a36.27,36.27,0,0,1-1.066,9.6,13.747,13.747,0,0,1-1.28,3.146,9.117,9.117,0,0,1-5.807,4.435,18.81,18.81,0,0,1-8.733.291,9.625,9.625,0,0,1-6.959-5.439,22.639,22.639,0,0,1-1.786-5.733,63.084,63.084,0,0,1-1.085-9.444c-.111-2.269-.152-4.538-.167-6.808-.007-1-.013-1-1.037-1L0,83.11V0Z" fill="#ed3128"/>
    </g>
  </g>
</svg>
