<?xml version="1.0" encoding="UTF-8"?>
<svg width="297px" height="300px" xmlns="http://www.w3.org/2000/svg" id="Layer_1" data-name="Layer 1" viewBox="0 0 178.99 180">
  <defs>
    <style>
      .cls-1 {
        fill: #5e5e60;
      }

      .cls-1, .cls-2, .cls-3 {
        stroke-width: 0px;
      }

      .cls-2 {
        fill: #fff;
      }

      .cls-3 {
        fill: #ed3328;
      }
    </style>
  </defs>
  <g id="Group_82" data-name="Group 82">
    <rect id="Rectangle_79" data-name="Rectangle 79" class="cls-2" width="178.99" height="136.28"></rect>
    <path id="Path_549" data-name="Path 549" class="cls-1" d="M13.93,157.89c1.67.08,3.34-.22,4.88-.87,1.84-.93,2.92-2.88,2.74-4.92.19-2.07-.99-4.03-2.91-4.83-1.57-.54-3.22-.78-4.88-.7H4.92v11.32h9ZM15.59,174.75c3.03,0,5.2-.88,6.49-2.64.83-1.18,1.26-2.59,1.22-4.03.17-2.4-1.29-4.62-3.56-5.42-1.6-.57-3.3-.83-5-.77H4.93v12.86h10.67ZM.07,142.44h15.7c4.28,0,7.32,1.28,9.13,3.83,1.07,1.53,1.62,3.36,1.59,5.22.08,2.07-.62,4.1-1.97,5.67-.83.89-1.83,1.62-2.93,2.14,1.54.52,2.97,1.34,4.2,2.41,1.71,1.76,2.6,4.15,2.46,6.59.01,2.32-.77,4.58-2.21,6.39-2.21,2.85-5.71,4.28-10.52,4.28H.07v-36.54ZM38.05,152.34v17.68c-.04,1.15.18,2.29.65,3.33.8,1.59,2.28,2.39,4.45,2.39,2.82.2,5.42-1.51,6.37-4.18.69-1.97,1-4.06.92-6.14v-13.08h4.48v26.64h-4.22l.05-3.93c-.56.98-1.29,1.85-2.17,2.56-1.76,1.41-3.96,2.15-6.22,2.09-3.8,0-6.39-1.27-7.76-3.81-.82-1.69-1.2-3.57-1.12-5.45v-18.11h4.58ZM61.9,152.46h4.55v26.51h-4.55v-26.51ZM61.9,142.44h4.55v5.08h-4.55v-5.08ZM73.35,142.44h4.48v36.54h-4.47v-36.54ZM87.38,165.97c-.09,2.51.54,5,1.82,7.16,1.27,1.95,3.5,3.06,5.82,2.88,2.04.02,3.96-.99,5.11-2.67,1.33-1.78,2-4.34,2-7.67,0-3.37-.69-5.86-2.06-7.47-1.24-1.55-3.12-2.44-5.1-2.42-2.13-.06-4.17.9-5.48,2.59-1.4,1.73-2.1,4.26-2.1,7.61ZM94.12,151.87c1.8-.06,3.57.38,5.12,1.29,1.04.72,1.95,1.6,2.71,2.61v-13.46h4.3v36.66h-4.03v-3.71c-.89,1.5-2.17,2.73-3.71,3.56-1.52.75-3.2,1.13-4.9,1.09-3-.02-5.84-1.39-7.71-3.74-2.17-2.5-3.26-5.82-3.26-9.96-.09-3.59.95-7.12,2.97-10.09,1.9-2.8,5.11-4.41,8.49-4.26h0ZM123.96,151.74c1.91,0,3.8.46,5.5,1.33,1.63.77,3.03,1.96,4.05,3.44.93,1.42,1.54,3.02,1.79,4.7.32,1.94.45,3.91.4,5.87h-19.53c-.04,2.31.63,4.58,1.92,6.5,1.32,1.69,3.4,2.61,5.55,2.45,2.12.09,4.17-.75,5.6-2.31.79-.89,1.37-1.96,1.69-3.11h4.4c-.18,1.15-.57,2.26-1.16,3.27-.57,1.09-1.32,2.09-2.2,2.95-1.4,1.35-3.15,2.28-5.05,2.69-1.2.28-2.43.41-3.66.4-3.2.05-6.27-1.27-8.43-3.62-2.3-2.41-3.46-5.79-3.46-10.14-.17-3.79,1.07-7.5,3.48-10.42,2.27-2.65,5.62-4.12,9.1-4h0ZM131.1,163.53c-.09-1.62-.52-3.21-1.27-4.65-1.23-2.16-3.27-3.23-6.14-3.23-1.96-.04-3.85.77-5.17,2.23-1.42,1.54-2.21,3.56-2.21,5.66h14.8ZM141.33,152.34h4.25v4.6c.62-1.26,1.49-2.37,2.56-3.27,1.25-1.24,2.94-1.93,4.7-1.93.08,0,.22,0,.42.03.2.02.54.05,1.02.1v4.73c-.24-.05-.49-.08-.73-.1-.22-.02-.47-.03-.73-.03-1.98-.12-3.9.68-5.2,2.18-1.19,1.4-1.84,3.18-1.82,5.01v15.32h-4.48v-26.64ZM160.83,170.62c.04,1.23.43,2.42,1.12,3.43,1.13,1.44,3.08,2.16,5.87,2.16,1.53.03,3.04-.34,4.38-1.08,1.22-.66,1.96-1.96,1.89-3.34.03-1.09-.56-2.1-1.52-2.61-1.23-.56-2.51-.99-3.83-1.27l-3.56-.9c-1.76-.37-3.46-1-5.02-1.89-1.81-1.02-2.92-2.95-2.88-5.02-.08-2.35.93-4.6,2.72-6.12,2.08-1.65,4.68-2.48,7.32-2.34,4.01,0,6.91,1.18,8.68,3.53,1.07,1.38,1.64,3.08,1.62,4.83h-4.23c-.08-1-.45-1.96-1.07-2.76-1.03-1.18-2.81-1.77-5.35-1.77-1.35-.09-2.7.25-3.84.97-.84.58-1.33,1.54-1.31,2.56,0,1.18.67,2.25,1.72,2.79.92.51,1.91.88,2.93,1.1l2.96.72c2.26.43,4.44,1.19,6.47,2.26,1.77,1.2,2.77,3.26,2.61,5.4.01,2.34-.97,4.57-2.7,6.14-1.8,1.72-4.54,2.59-8.22,2.59-3.96,0-6.77-.9-8.42-2.7-1.66-1.83-2.6-4.2-2.65-6.68h4.3Z"></path>
    <path id="logo" class="cls-3" d="M178.99,0v6.68l-23.81-.06c-1.13,0-1.1-.09-1.1,1.09,0,9.26.02,18.52.02,27.77,0,5.62-.02,11.24-.04,16.86,0,1.23,0,1.23-1.26,1.23-10.39,0-20.79-.01-31.18-.02-4.66,0-9.32.03-13.97.04-.2,0-.41-.01-.61,0-.43.03-.55-.18-.54-.58.01-1.51,0-3.03,0-4.54V7.77c0-1.22.06-1.15-1.13-1.15h-23.58c-1.13,0-1.05-.05-1.05,1.04v121.06c0,1.31-.14,1.23,1.22,1.23,7.86-.03,15.72-.09,23.58.02h.26c.62-.03.66-.06.7-.72,0-.12,0-.23,0-.35,0-17.61,0-35.23,0-52.84v-.61c-.04-.22.12-.43.34-.47.05,0,.1,0,.14,0,.2,0,.41,0,.61,0,14.59,0,29.17.02,43.76.03.44-.01.87,0,1.31.05.74.01,1.34.59,1.38,1.33.06.46.09.93.08,1.39,0,6.08-.02,12.17-.03,18.25,0,10.95-.01,21.89-.01,32.84q0,1.07,1.03,1.06l23.89-.05v6.39H0v-25.6c.3.06.35.28.43.43.81,1.74,1.63,3.48,2.43,5.23,1.7,3.92,4.37,7.34,7.74,9.96,2.54,1.92,5.41,3.36,8.46,4.25,5.61,1.7,11.44,2.55,17.3,2.52,5.6.03,11.17-.83,16.5-2.54,9.17-3.05,15.32-9.22,18.61-18.28,1.67-4.76,2.61-9.74,2.79-14.79.2-4.28.08-8.56.09-12.84.02-25.45.02-50.89.02-76.34v-.26c0-1.54.09-1.39-1.35-1.39-7.77,0-15.55,0-23.32,0h-.26c-.95,0-.96,0-.96.98,0,10.71,0,21.43,0,32.14,0,18.08.01,36.16.02,54.24.07,3.23-.28,6.46-1.07,9.6-.29,1.1-.72,2.15-1.28,3.15-1.23,2.22-3.34,3.83-5.81,4.43-2.85.78-5.84.88-8.73.29-3.06-.58-5.66-2.61-6.96-5.44-.85-1.82-1.45-3.75-1.79-5.73-.6-3.12-.96-6.27-1.09-9.44-.11-2.27-.15-4.54-.17-6.81,0-1-.01-1-1.04-1-6.46.02-20.57.07-20.57.07V0h178.99Z"></path>
  </g>
</svg>
